<svg class="logo" version="1.1" xmlns="http://www.w3.org/2000/svg" x="0" y="0" viewBox="0 0 71 20" xml:space="preserve">
    <path d="M4.27 11.97c0 1.69.7 2.54 2.12 2.54.8 0 1.49-.33 2.07-.98.86.33 1.29.93 1.29 1.83 0 .59-.42 1.1-1.25 1.52-.83.42-1.77.63-2.81.63-1.8 0-3.2-.47-4.2-1.41s-1.5-2.26-1.5-3.95c0-1.66.54-3.01 1.61-4.05 1.08-1.04 2.47-1.56 4.17-1.56 1.1 0 2.03.23 2.79.68.76.45 1.15.96 1.15 1.53 0 .43-.16.83-.47 1.19-.31.36-.68.57-1.09.61-.46-.67-1.08-1-1.87-1-.62 0-1.12.21-1.48.63-.34.42-.53 1.02-.53 1.79zM16.85 17.22h-6.3c-.12-.49-.18-.86-.18-1.11 0-1.13.36-1.69 1.09-1.69h.38V9.59h-1.29c-.12-.52-.18-.89-.18-1.11 0-.7.22-1.17.65-1.41.43-.24 1.24-.37 2.43-.37.82 0 1.54.14 2.16.42.13.48.2 1.05.2 1.74v.78c.13-.88.46-1.59.97-2.15.51-.56 1.11-.83 1.79-.83.58 0 1.06.12 1.45.37.39.24.58.6.58 1.08 0 .52-.13 1.04-.38 1.55s-.57.89-.96 1.15c-.37-.37-.88-.56-1.54-.56-.34 0-.66.06-.97.18-.3.12-.53.27-.68.45v3.56h1.69c.12.49.18.86.18 1.11 0 1.11-.36 1.67-1.09 1.67zM20.77 12.04c0-1.63.57-2.96 1.71-3.97 1.14-1.02 2.61-1.52 4.41-1.52 1.81 0 3.23.48 4.25 1.45 1.02.96 1.54 2.31 1.54 4.03 0 1.65-.56 2.98-1.69 3.99-1.13 1.01-2.61 1.51-4.45 1.51-1.8 0-3.21-.49-4.23-1.46-1.03-.99-1.54-2.33-1.54-4.03zm7.55-.03c0-.85-.13-1.48-.4-1.89-.27-.42-.67-.62-1.2-.62-.5 0-.89.22-1.17.66-.27.44-.41 1.07-.41 1.88 0 .83.13 1.46.4 1.88.27.42.66.63 1.18.63.5 0 .9-.22 1.18-.67.28-.44.42-1.06.42-1.87zM57.91 15.29c0 .62-.43 1.15-1.3 1.58-.87.43-1.94.65-3.22.65-1.71 0-3.13-.44-4.26-1.32-1.14-.88-1.7-2.26-1.7-4.13 0-1.68.53-3.02 1.6-4.02 1.07-1 2.5-1.5 4.3-1.5 1.51 0 2.71.4 3.6 1.21.88.81 1.32 1.91 1.32 3.31 0 .65-.09 1.16-.27 1.51h-6.41c.07.64.32 1.13.75 1.48.42.35 1.01.52 1.75.52.89 0 1.76-.33 2.6-1 .82.3 1.24.88 1.24 1.71zM53.17 8.9c-.46 0-.83.17-1.1.51-.27.34-.43.79-.48 1.36h2.85v-.04-.04c0-.59-.1-1.04-.31-1.34-.21-.3-.53-.45-.96-.45zM59.09 12.04c0-1.63.57-2.96 1.71-3.97 1.14-1.02 2.61-1.52 4.41-1.52 1.81 0 3.23.48 4.25 1.45 1.03.95 1.54 2.29 1.54 4.01 0 1.65-.56 2.98-1.69 3.99-1.13 1.01-2.61 1.51-4.45 1.51-1.8 0-3.21-.49-4.23-1.46-1.03-.97-1.54-2.31-1.54-4.01zm7.55-.03c0-.85-.13-1.48-.4-1.89-.27-.42-.67-.62-1.2-.62-.5 0-.89.22-1.17.66-.27.44-.41 1.07-.41 1.88 0 .83.13 1.46.4 1.88.27.42.66.63 1.18.63.5 0 .9-.22 1.18-.67.27-.44.42-1.06.42-1.87z" fill="#00af90"/>
    <path d="M52.06 10.35c-.93-.86-3.25-1.93-5.4.12l-.34.33c-.65.63-1.34 1.29-2.02 1.82-.28-.37-.56-.64-.85-.81-.3-.17-.69-.28-1.18-.32.19-.04.38-.13.57-.24.19-.12.39-.27.61-.47l1.34-1.22h.42c.5 0 .87-.11 1.1-.34.23-.23.34-.66.34-1.3 0-.36-.06-.71-.18-1.07h-5.45c-.7 0-1.05.49-1.05 1.47 0 .27.06.62.18 1.07h1.4l-1 .89c-.27.24-.5.4-.7.48-.2.08-.45.12-.75.12h-.49V3.62c0-.88-.07-1.54-.2-2a4.11 4.11 0 00-1.08-.32c-.39-.07-.81-.1-1.26-.1-1.2 0-2.01.12-2.44.37S33 2.29 33 2.98c0 .25.06.62.18 1.11h1.29v10.33h-.38c-.73 0-1.09.56-1.09 1.69 0 .28.06.65.18 1.11h5.37c.73 0 1.09-.56 1.09-1.69 0-.28-.06-.65-.18-1.11h-.85v-1.63h.49c.33 0 .57.07.73.2.04.03.09.08.14.14.47 1.46 1.9 4.93 5.1 5.53.1.02.19.05.29.06 2.06.39 4.33-.63 6.75-3.03.8-.79 1.2-1.67 1.19-2.6 0-1.56-1.19-2.7-1.24-2.74z" fill="#00af90"/>
    <path d="M51.45 11c-.16-.15-.34-.28-.54-.39-.32-.18-.66-.32-1.03-.39-.74-.14-1.66-.01-2.6.89l-.34.33c-1.66 1.6-3.38 3.26-5 2.98-.11-.02-.22-.05-.33-.09.11.21.24.43.38.65.42.57 1.23 1.26 2.56 1.03 2.41-.45 4.92-3.51 4.95-3.55.15-.19.43-.22.62-.06.19.15.22.43.07.62-.13.16-3.16 3.85-6.11 3.93-.15 0-.3 0-.45-.02.49.4 1.05.72 1.68.88 1.81.46 3.89-.46 6.19-2.74.62-.61.94-1.27.93-1.96-.01-.81-.39-1.57-.98-2.11z" fill="#fca9b1"/>
</svg>
